#!OML:ASF F:\VICON\USERDATA\INSTALL\rory3\rory3.ASF
:FULLY-SPECIFIED
:DEGREES
38
root 0.1507224025934134 17.934576872209416 10.977113601483213 4.592013890051739 -2.626071177559263 -0.3046506661765438
lfemur 4.079954655156376 -2.007456585452819 -27.024573148041835
ltibia 25.96100169393662
lfoot 0.3499273319617453 -9.941426742324639
ltoes -15.066989360368572
rfemur -39.09158515929758 -1.256509100757883 22.821610802226274
rtibia 68.1098228743073
rfoot 5.690429882288895 -2.12298489380632
rtoes -5.308574688820561
lowerback 13.021637307837906 -1.0597241998554 -2.371474828631734
upperback -0.144806201641085 -0.22314662900881244 0.07750118517731575
thorax -8.209126486484427 0.07323156796577801 1.4760296308749838
lowerneck -18.809015200941523 -3.1112156302137044 -2.681149523109214
upperneck 15.030537206517742 -3.8613286240617644 2.655783269166341
head 7.585611589511476 -1.9071389842419868 0.8665849472169174
lclavicle 3.0724525845604087e-16 -4.306739326009466e-16
lhumerus -33.80269878540312 -17.28281983102558 97.1260107418149
lradius 105.52258650648675
lwrist 31.427564081161744
lhand -25.31595043816796 1.420303088901367
lfingers 7.125020000000001
lthumb 1.4570315681952586 31.448898302137508
rclavicle 3.0723791499975996e-16 -4.3067812433347744e-16
rhumerus -55.43476415284056 6.855514972316953 -97.56302147878722
rradius 100.1990734000566
rwrist -18.99087728242982
rhand -18.392283293697027 38.056727090917164
rfingers 7.125020000000001
rthumb 7.820763054001079 7.757096438564481
39
root 0.1891800107266926 18.103538245113366 13.090745147248946 4.6130710998145465 -3.0603077585663394 -0.06543348121252834
lfemur 6.318256501514993 -1.883443340945486 -26.59969362929545
ltibia 23.276095236093372
lfoot 1.1158669616114967 -10.03274093548943
ltoes -15.16808656511503
rfemur -39.599568991272086 -0.06629712655880282 23.661427517380965
rtibia 62.160724734994645
rfoot 4.517114322965188 -1.6556254043326684
rtoes -6.556157637909388
lowerback 12.534288209455863 -1.185016915889793 -2.176517752664644
upperback -0.32012261174494094 -0.5862614005953246 0.32963967826112994
thorax -8.226870050881955 -0.01476529911239155 1.6469180637339929
lowerneck -18.654404952347175 -3.025057778621033 -2.6814336138937165
upperneck 15.371997585529785 -3.652799937172617 2.512609546910693
head 7.647909164565834 -1.822921885178952 0.8386942811803937
lclavicle 3.0724525846318992e-16 -4.306739325968659e-16
lhumerus -34.12201131366853 -17.247845198402228 97.26744258730555
lradius 107.61790387672946
lwrist 31.311651827364994
lhand -25.37952430171371 1.5923907576255834
lfingers 7.125020000000001
lthumb 1.4823501494719769 31.641976148527814
rclavicle 3.0723791502509438e-16 -4.3067812431901624e-16
rhumerus -56.391873662351 7.006051875496363 -97.31129458247528
rradius 100.58888497033216
rwrist -18.9910694296921
rhand -18.485257296471826 38.32139022613091
rfingers 7.125020000000001
rthumb 7.768042681064461 7.992014783363606
40
root 0.21791391497725074 18.212795115701038 14.286565614882129 4.451858260997554 -3.1345778506363384 0.4286530495370804
lfemur 7.6061392671759425 -2.3247940423901032 -26.78482107970735
ltibia 23.02413638768957
lfoot 2.2951854401706457 -10.244330203137887
ltoes -14.022222110001902
rfemur -40.17386554706148 0.8446746431638676 24.17791641975311
rtibia 56.15619913176033
rfoot 2.7038290861759395 -1.463587261555996
rtoes -7.0428602784812195
lowerback 12.113586602525245 -1.2515986127154628 -1.9770811712103933
upperback -0.4931838512831729 -0.8231177231972799 0.6419872071397844
thorax -8.216796333016049 -0.050163894955534416 1.847791235347034
lowerneck -18.61299397494281 -3.03517083207685 -2.7112064748503055
upperneck 15.459966170241387 -3.5755012310859993 2.454844794744594
head 7.700583635007525 -1.7472792520900953 0.8236635464568336
lclavicle 3.0724525846607356e-16 -4.306739325952199e-16
lhumerus -34.96707907328292 -17.391067975712023 97.39475047142177
lradius 110.35656769136156
lwrist 31.43935387318262
lhand -25.3994125700519 1.7260320793706614
lfingers 7.125020000000001
lthumb 1.4701545801453024 31.74516090413329
rclavicle 3.072379150600065e-16 -4.30678124299088e-16
rhumerus -57.51464404886448 6.9190246470141075 -97.06318424071925
rradius 100.89262824507
rwrist -19.07177089052066
rhand -18.645719608303875 38.27571792885274
rfingers 7.125020000000001
rthumb 7.719070720726755 8.170349385551905
41
root 0.2591711732178455 18.2997401665463 15.827850080997717 4.339580959380504 -2.6893722850253963 0.5404923977365985
lfemur 7.0754885925588535 -2.6591163857246363 -26.28797341973934
ltibia 25.34271870220722
lfoot 3.4856053582500297 -10.50260515943643
ltoes -13.211131124866977
rfemur -40.90934123552084 1.4318645369311815 24.398941159582638
rtibia 50.265407876552295
rfoot 1.6896000910351314 -1.3948855911127565
rtoes -7.545654776296663
lowerback 11.764134079239723 -1.3649708996744856 -1.8215995765028323
upperback -0.7265088670116308 -1.0086388497398173 0.9661851477775965
thorax -8.229394453018376 -0.08471375339902731 2.0456998301651086
lowerneck -18.575854981875263 -2.9803559175965093 -2.676667106229085
upperneck 15.402531082952034 -3.538787489769556 2.489514846053007
head 7.715201889281419 -1.7270240852469583 0.8146213372787295
lclavicle 3.072452584612245e-16 -4.306739325979878e-16
lhumerus -35.73987440722015 -17.668901197541796 97.67986625032609
lradius 112.34072093072923
lwrist 31.58742788956704
lhand -25.48190540158546 1.855093357112324
lfingers 7.125020000000001
lthumb 1.3648577477162944 31.811628217502054
rclavicle 3.072379149893676e-16 -4.3067812433940953e-16
rhumerus -58.28268961647851 6.667367609791265 -96.745958616341
rradius 101.22627896372153
rwrist -19.257225270492263
rhand -18.67581217151468 38.106320134146834
rfingers 7.125020000000001
rthumb 7.657328146816171 8.002122182682276
42
root 0.29515067270137824 18.363276165344097 17.403840727128898 4.319483645318117 -2.424220088059508 0.7985552795801862
lfemur 7.076217710685436 -3.065400796381538 -26.431553920837434
ltibia 29.369381525754378
lfoot 5.050984589228799 -10.391182145362642
ltoes -12.274261727771787
rfemur -40.16082930753184 1.8168896264450476 24.821958029266483
rtibia 44.873976100577465
rfoot 1.0480955130878367 -1.6580910635091026
rtoes -6.727353963762408
lowerback 11.533735673867444 -1.4858526682636684 -1.803503951122072
upperback -0.9540075920085247 -1.2031601466944875 1.2765003623643605
thorax -8.234303980026569 -0.11218120505743834 2.30266970873041
lowerneck -18.800170855385836 -3.0899956492181335 -2.70633369920417
upperneck 15.267390908678312 -3.604442748260067 2.4945068297600823
head 7.703642998043365 -1.7458816667895538 0.8026224866551992
lclavicle 3.072452584612245e-16 -4.306739325979878e-16
lhumerus -36.83414629822625 -18.119253084069975 97.9254216399922
lradius 113.11143542036851
lwrist 31.61113657817509
lhand -25.684927700045996 2.109292622758124
lfingers 7.125020000000001
lthumb 1.2165853011678136 32.188488041894544
rclavicle 3.0723791498936755e-16 -4.3067812433940953e-16
rhumerus -58.94216671526948 6.306903946371093 -96.4447342592034
rradius 101.57908652653764
rwrist -19.338621261944372
rhand -18.59423267373279 38.02775221747843
rfingers 7.125020000000001
rthumb 7.719139267795983 7.904664119320264
43
root 0.3198575167594325 18.362608892075183 18.290959192374885 4.095780863728436 -2.339640817844293 0.920046098631438
lfemur 5.349718489164681 -3.1442282765005194 -26.153077648936094
ltibia 34.312367764990654
lfoot 6.9926742293800395 -10.432125436391443
ltoes -11.246768862458374
rfemur -38.37351779550821 1.8712206910257465 25.106069172783045
rtibia 40.580587186365925
rfoot 1.40131360492785 -2.3019779781926406
rtoes -5.603387835163284
lowerback 11.471849891118397 -1.6087256174123228 -1.8856718252528195
upperback -1.185440205071014 -1.4406163407791313 1.498024972308549
thorax -8.268229489261062 -0.24588386874561408 2.3612562850598082
lowerneck -18.867067718320264 -3.092924959737425 -2.655323026231678
upperneck 15.093666699193207 -3.7053763471638135 2.518577340978038
head 7.692640436790288 -1.7539317245725123 0.8078454035234688
lclavicle 3.072452584612245e-16 -4.306739325979878e-16
lhumerus -37.38837574108314 -18.52061969973463 98.23474490394017
lradius 113.08165528856948
lwrist 31.55890205579997
lhand -25.880927636902573 2.423259246176268
lfingers 7.125020000000001
lthumb 1.0362910092871038 32.56673385886588
rclavicle 3.0723791498936844e-16 -4.3067812433940903e-16
rhumerus -58.73051548792553 6.031860533241143 -96.02412087372925
rradius 101.96078360472359
rwrist -19.40539451864974
rhand -18.52368426461041 37.93735608968691
rfingers 7.125020000000001
rthumb 7.794573194492127 7.903247307052148
44
root 0.3342734812856468 18.307505147936315 18.67178581222231 3.6880607427170427 -2.459097370174093 0.8073496334995627
lfemur 4.291723574691117 -3.035955809008569 -25.88825694481765
ltibia 40.177394030244244
lfoot 7.770073426494933 -11.012548425181553
ltoes -10.018158345304725
rfemur -36.66449906258937 1.6617461814781418 25.060625457941278
rtibia 38.01268129836019
rfoot 2.3624305038953697 -3.1143177449163733
rtoes -4.858037359216318
lowerback 11.538528354439268 -1.7013139200984382 -2.0391834013113073
upperback -1.3408589430727789 -1.6477338363351854 1.6728776148028417
thorax -8.210909416992228 -0.2969985858469879 2.558145065568406
lowerneck -19.03877498473087 -3.1519881559686107 -2.6343810916185664
upperneck 14.872592874263747 -3.835262951221228 2.521634949669494
head 7.667310357545286 -1.775700683065816 0.8058174640349632
lclavicle 3.072452584612245e-16 -4.306739325979878e-16
lhumerus -37.51425824045452 -18.7416193188344 98.51624465961676
lradius 112.90066443503707
lwrist 31.573962732630378
lhand -25.986105372697352 2.890000165104468
lfingers 7.125020000000001
lthumb 0.8679220931304079 33.02223298719869
rclavicle 3.072379149893678e-16 -4.3067812433940943e-16
rhumerus -58.76187348116379 5.578544787930678 -95.73642314047476
rradius 102.31590403813027
rwrist -19.482516123530345
rhand -18.472679568106507 37.90134707023307
rfingers 7.125020000000001
rthumb 7.869957410703603 7.9947321986120885
